<svg width="16" height="16" viewBox="0 0 16 16" fill="none" xmlns="http://www.w3.org/2000/svg">
<path d="M2.8393 11.0624C2.09384 9.8057 1.83277 8.32012 2.10512 6.88459C2.37747 5.44906 3.1645 4.16233 4.31843 3.26602C5.47235 2.3697 6.91379 1.92546 8.37208 2.01672C9.83036 2.10798 11.2052 2.72845 12.2384 3.76162C13.2715 4.7948 13.892 6.16961 13.9833 7.6279C14.0745 9.08618 13.6303 10.5276 12.734 11.6816C11.8377 12.8355 10.551 13.6225 9.11543 13.8949C7.67991 14.1672 6.19433 13.9062 4.93766 13.1607L4.93767 13.1607L2.86539 13.7527C2.77965 13.7772 2.68892 13.7784 2.6026 13.756C2.51629 13.7336 2.43752 13.6886 2.37447 13.6255C2.31142 13.5625 2.26637 13.4837 2.24401 13.3974C2.22164 13.3111 2.22276 13.2203 2.24726 13.1346L2.83934 11.0623L2.8393 11.0624Z" stroke="black" stroke-width="2" stroke-linecap="round" stroke-linejoin="round"/>
<path d="M4.99988 8.7525C5.41409 8.7525 5.74988 8.41672 5.74988 8.0025C5.74988 7.58829 5.41409 7.2525 4.99988 7.2525C4.58566 7.2525 4.24988 7.58829 4.24988 8.0025C4.24988 8.41672 4.58566 8.7525 4.99988 8.7525Z" fill="black"/>
<path d="M8 8.7525C8.41421 8.7525 8.75 8.41672 8.75 8.0025C8.75 7.58829 8.41421 7.2525 8 7.2525C7.58579 7.2525 7.25 7.58829 7.25 8.0025C7.25 8.41672 7.58579 8.7525 8 8.7525Z" fill="black"/>
<path d="M11.0001 8.7525C11.4143 8.7525 11.7501 8.41672 11.7501 8.0025C11.7501 7.58829 11.4143 7.2525 11.0001 7.2525C10.5859 7.2525 10.2501 7.58829 10.2501 8.0025C10.2501 8.41672 10.5859 8.7525 11.0001 8.7525Z" fill="black"/>
</svg>
